<svg xmlns="http://www.w3.org/2000/svg" width="24" height="24" viewBox="0 0 24 24">
  <path id="Union_1" data-name="Union 1" d="M0,12.008A12.006,12.006,0,0,1,20.5,3.525,11.889,11.889,0,0,1,24,12.008a12,12,0,0,1-24,0Zm2.2,0A9.811,9.811,0,1,0,12,2.2,9.81,9.81,0,0,0,2.2,12.008Zm10.832,6.368v-9.3H15.21V16.51h2.668v1.867ZM6.178,12.357V5.626H8.358V12.64c0,.439.141.832.753.832.565,0,.738-.5.738-.895V5.626H12.03v6.731c0,1.57-.707,2.794-2.934,2.794C7.244,15.151,6.178,14.271,6.178,12.357Z" fill="#be0f34"/>
</svg>
